<svg width="50" height="50" viewBox="0 0 50 50" fill="none" xmlns="http://www.w3.org/2000/svg">
<path fill-rule="evenodd" clip-rule="evenodd" d="M27.725 29.375C28.1 29.85 28.55 30.3875 28.55 30.3875C31.3125 30.3 32.375 28.4875 32.375 28.4875C32.375 24.4625 30.575 21.2 30.575 21.2C28.775 19.85 27.0625 19.8875 27.0625 19.8875L26.8875 20.0875C29.0125 20.7375 30 21.675 30 21.675C28.7 20.9625 27.425 20.6125 26.2375 20.475C25.3375 20.375 24.475 20.4 23.7125 20.5C23.647 20.5 23.5911 20.5095 23.528 20.5203L23.5 20.525C23.0625 20.5625 22 20.725 20.6625 21.3125C20.2 21.525 19.925 21.675 19.925 21.675C19.925 21.675 20.9625 20.6875 23.2125 20.0375L23.0875 19.8875C23.0875 19.8875 21.375 19.85 19.575 21.2C19.575 21.2 17.775 24.4625 17.775 28.4875C17.775 28.4875 18.825 30.3 21.5875 30.3875C21.5875 30.3875 22.05 29.825 22.425 29.35C20.8375 28.875 20.2375 27.875 20.2375 27.875C20.2375 27.875 20.3625 27.9625 20.5875 28.0875C20.6 28.1 20.6125 28.1125 20.6375 28.125C20.6563 28.1375 20.675 28.1469 20.6938 28.1563C20.7125 28.1656 20.7313 28.175 20.75 28.1875C21.0625 28.3625 21.375 28.5 21.6625 28.6125C22.175 28.8125 22.7875 29.0125 23.5 29.15C24.4375 29.325 25.5375 29.3875 26.7375 29.1625C27.325 29.0625 27.925 28.8875 28.55 28.625C28.9875 28.4625 29.475 28.225 29.9875 27.8875C29.9875 27.8875 29.3625 28.9125 27.725 29.375ZM21.4625 25.9375C21.4625 25.175 22.025 24.55 22.7375 24.55C23.45 24.55 24.025 25.175 24.0125 25.9375C24.0125 26.7 23.45 27.325 22.7375 27.325C22.0375 27.325 21.4625 26.7 21.4625 25.9375ZM26.025 25.9375C26.025 25.175 26.5875 24.55 27.3 24.55C28.0125 24.55 28.575 25.175 28.575 25.9375C28.575 26.7 28.0125 27.325 27.3 27.325C26.6 27.325 26.025 26.7 26.025 25.9375Z" fill="black"/>
<path fill-rule="evenodd" clip-rule="evenodd" d="M25 0C38.8071 0 50 11.1929 50 25C50 38.8071 38.8071 50 25 50C11.1929 50 0 38.8071 0 25C0 11.1929 11.1929 0 25 0ZM14.0625 16.6375C14.0625 15.2125 15.2125 14.0625 16.625 14.0625H33.375C34.7875 14.0625 35.9375 15.2125 35.9375 16.6375V39.0625L33.25 36.6875L31.7375 35.2875L30.1375 33.8L30.8 36.1125H16.625C15.2125 36.1125 14.0625 34.9625 14.0625 33.5375V16.6375Z" fill="black"/>
</svg>
