<svg width="72" height="72" viewBox="0 0 72 72" fill="green" xmlns="http://www.w3.org/2000/svg">
<path fill-rule="evenodd" clip-rule="evenodd" d="M36 6C19.4314 6 6 19.4314 6 36C6 52.5686 19.4314 66 36 66C52.5686 66 66 52.5686 66 36C66 19.4314 52.5686 6 36 6V6ZM36 51C34.3431 51 33 49.6569 33 48C33 46.3431 34.3431 45 36 45C37.6569 45 39 46.3431 39 48C39 49.6569 37.6569 51 36 51ZM39 39C39 40.6569 37.6569 42 36 42C34.3431 42 33 40.6569 33 39V24C33 22.3431 34.3431 21 36 21C37.6569 21 39 22.3431 39 24V39Z" fill="#FF000F"/>
</svg>
