<svg width="90" height="21" viewBox="0 0 90 21" fill="none" xmlns="http://www.w3.org/2000/svg">
<path d="M4.90625 5.99951L5.24805 14.8618L8.20215 14.0317L8.23877 6.96387L4.90625 5.99951ZM0.304199 18.9756L0.353027 1.56836L6.34668 1.55615L13.4512 4.0708L12.8652 16.4731L6.71289 19.1099L0.304199 18.9756ZM19.5361 1.49512L20 19.1465L14.9341 19.2197L14.8608 1.69043L19.5361 1.49512ZM32.811 3.24072L32.1519 7.39111L27.0371 6.19482L32.811 14.7642L30.1133 20.1719L21.5195 19L21.3486 14.2271L26.7808 15.1426L21.1533 6.01172L24.73 1.1167L32.811 3.24072ZM47.0747 12.7988L46.9404 16.4731L40.7881 19.7202L34.3794 16.5342L34.3062 4.25391L40.4219 0.945801L47.5264 4.0708L47.3799 7.84277L42.314 8.70947V7.20801L40.605 5.9873L38.9814 6.60986L39.3232 13.7632L40.605 14.6787L42.2773 14.0317L42.2896 11.8345L47.0747 12.7988ZM53.5381 6.60986L53.8799 13.7632L55.1616 14.6787L56.834 14.0317L56.8706 7.20801L55.1616 5.9873L53.5381 6.60986ZM48.936 16.5342L48.8628 4.25391L54.9785 0.945801L62.083 4.0708L61.4971 16.4731L55.3447 19.7202L48.936 16.5342ZM67.8262 5.87744V8.35547L68.8271 8.34326L70.6094 6.89062L69.584 5.6333L67.8262 5.87744ZM63.5049 18.8779L63.6758 2.02002L70.0479 1.00684L75.0894 3.33838L74.7964 9.979L72.001 12.0908L75.2725 17.2544L71.5615 20.0254L67.9116 13.6777L67.9604 19.3906L63.5049 18.8779ZM80.9912 5.99951L81.333 14.8618L84.2871 14.0317L84.3237 6.96387L80.9912 5.99951ZM76.3892 18.9756L76.438 1.56836L82.4316 1.55615L89.5361 4.0708L88.9502 16.4731L82.7979 19.1099L76.3892 18.9756Z" fill="black"/>
</svg>
