<svg width="14" height="14" viewBox="0 0 14 14" fill="none" xmlns="http://www.w3.org/2000/svg">
<path fill-rule="evenodd" clip-rule="evenodd" d="M0.577571 12.2442C0.252138 12.5697 0.252138 13.0973 0.577571 13.4227C0.903013 13.7482 1.43065 13.7482 1.75609 13.4227L7.00016 8.17866L12.2442 13.4227C12.5697 13.7482 13.0973 13.7482 13.4227 13.4227C13.7482 13.0973 13.7482 12.5697 13.4227 12.2442L8.17866 7.00016L13.4227 1.75609C13.7482 1.43065 13.7482 0.903013 13.4227 0.577571C13.0973 0.252138 12.5697 0.252138 12.2442 0.577571L7.00016 5.82166L1.75609 0.577571C1.43065 0.252138 0.903013 0.252138 0.577571 0.577571C0.252138 0.903013 0.252138 1.43065 0.577571 1.75609L5.82166 7.00016L0.577571 12.2442Z" fill="#C1C7C9"/>
</svg>
