<svg width="21" height="20" viewBox="0 0 21 20" fill="none" xmlns="http://www.w3.org/2000/svg">
<g clip-path="url(#clip0_751_218416)">
<path d="M12.5857 10.0314V17.4C12.586 17.6138 12.5254 17.8234 12.4109 18.005C12.2964 18.1865 12.1324 18.3328 11.9378 18.4271L8.89384 19.9129C8.76425 19.9761 8.62042 20.0057 8.47598 19.9988C8.33154 19.9919 8.19128 19.9488 8.06848 19.8736C7.94567 19.7983 7.84439 19.6934 7.77423 19.5688C7.70408 19.4442 7.66736 19.3039 7.66757 19.1614V10.0257C7.66791 9.12837 7.33008 8.26289 6.7196 7.59714L0.995558 1.36143C0.887984 1.24457 0.817176 1.09943 0.791743 0.943645C0.766309 0.787862 0.787347 0.628153 0.852297 0.483935C0.917247 0.339717 1.02331 0.217204 1.1576 0.131291C1.29188 0.0453774 1.4486 -0.000234424 1.60869 9.06044e-07H18.6837C18.844 0.000164906 19.0007 0.0461773 19.135 0.132452C19.2692 0.218726 19.3751 0.341552 19.4399 0.486017C19.5047 0.630482 19.5255 0.790374 19.4998 0.946278C19.4742 1.10218 19.4032 1.2474 19.2954 1.36429L13.5424 7.59429C12.9267 8.26094 12.5856 9.12999 12.5857 10.0314Z" fill="#12141D"/>
</g>
<defs>
<clipPath id="clip0_751_218416">
<rect width="20.2929" height="20" fill="white"/>
</clipPath>
</defs>
</svg>
