<svg width="73" height="25" viewBox="0 0 73 25" fill="none" xmlns="http://www.w3.org/2000/svg">
<path d="M17.8281 20.9219L8.73438 24.9219L0.90625 20.6875L1 4.96875L9.20312 0.890625L17.0781 5.04688L17.25 8.1875L11.125 9.26562L11.1094 8.17188L8.96875 7.34375L7.32812 8.51562L6.89062 17.6719L8.96875 18.4688L11.1562 16.9062V15.4375H8.98438L8.64062 10.7188L17.4688 10.5469L17.8281 20.9219ZM25.3281 20.7344L24.4375 24L18.2656 23.9375L24.9688 1.39062L32.7188 1.57812L37.7031 24.1094L31.2031 24.0625L30.6094 21.0625L25.3281 20.7344ZM29.3594 14.8125L28.3281 9.65625L26.9531 14.7188L29.3594 14.8125ZM45.3125 17.9688L52 18.1094L52.1875 24.2812L37.9375 23.8125L38 17.8281L44.7812 7.9375H38.0625L38.1094 1.67188L51.9844 1.65625L52.0625 7.9375L45.3125 17.9688ZM59.6406 20.7344L58.75 24L52.5781 23.9375L59.2812 1.39062L67.0312 1.57812L72.0156 24.1094L65.5156 24.0625L64.9219 21.0625L59.6406 20.7344ZM63.6719 14.8125L62.6406 9.65625L61.2656 14.7188L63.6719 14.8125Z" fill="#AEAEAE"/>
</svg>
