<svg width="121" height="21" viewBox="0 0 121 21" fill="none" xmlns="http://www.w3.org/2000/svg">
<path d="M4.69092 1.49512L5.15479 19.1465L0.0888672 19.2197L0.015625 1.69043L4.69092 1.49512ZM11.4595 11.395L11.7036 18.9023L6.51562 18.9756L6.44238 1.8125L11.1177 1.61719L14.5601 9.24658L14.5967 1.55615L19.7847 1.62939L19.1987 18.9146L14.5234 18.7192L11.4595 11.395ZM32.2295 3.24072L31.5703 7.39111L26.4556 6.19482L32.2295 14.7642L29.5317 20.1719L20.938 19L20.7671 14.2271L26.1992 15.1426L20.5718 6.01172L24.1484 1.1167L32.2295 3.24072ZM33.6147 2.28857L46.0903 1.18994L45.9438 6.74414H42.1353L42.7212 19.1465L37.5332 19.2197L37.46 6.93945L33.9077 6.52441L33.6147 2.28857ZM49.7827 16.4487L49.0869 19L44.2651 18.9512L49.502 1.33643L55.5566 1.48291L59.4507 19.0854L54.3726 19.0488L53.9087 16.7051L49.7827 16.4487ZM52.9321 11.8223L52.1265 7.79395L51.0522 11.749L52.9321 11.8223ZM73.1284 16.5952L66.0239 19.7202L59.9082 16.4121L59.9814 4.13184L66.3901 0.945801L72.5425 4.19287L72.6768 6.64648L67.8916 7.48877L67.8794 6.63428L66.207 5.9873L64.9253 6.90283L64.5835 14.0562L66.207 14.6787L67.916 13.458V12.3105H66.2192L65.9507 8.62402L72.8477 8.48975L73.1284 16.5952ZM78.8716 5.87744V8.35547L79.8726 8.34326L81.6548 6.89062L80.6294 5.6333L78.8716 5.87744ZM74.5503 18.8779L74.7212 2.02002L81.0933 1.00684L86.1348 3.33838L85.8418 9.979L83.0464 12.0908L86.3179 17.2544L82.6069 20.0254L78.957 13.6777L79.0059 19.3906L74.5503 18.8779ZM92.1343 16.4487L91.4385 19L86.6167 18.9512L91.8535 1.33643L97.9082 1.48291L101.802 19.0854L96.7241 19.0488L96.2603 16.7051L92.1343 16.4487ZM95.2837 11.8223L94.478 7.79395L93.4038 11.749L95.2837 11.8223ZM101.234 19.0488L104.701 1.18994L108.791 0.750488L110.622 9.07568L112.66 1.33643L116.969 1.55615L120.106 19L115.407 18.9634L114.259 12.8721L112.514 18.7681L109.01 18.7803L107.472 13.0186L105.629 19.0732L101.234 19.0488Z" fill="black"/>
</svg>
