<svg width="23" height="24" viewBox="0 0 23 24" fill="none" xmlns="http://www.w3.org/2000/svg">
<path d="M13.4592 9.5448H17.5896L22.3152 4.8168V0.2808C22.3152 0.132 22.1952 0.012 22.0464 0.012H17.5104L12.7824 4.7376V9.2688C12.7824 9.4176 12.6624 9.5376 12.5136 9.5376H7.896V9.528H7.4304C7.2816 9.528 7.1616 9.408 7.1616 9.2592V0.2688C7.1616 0.12 7.0416 0 6.8928 0H2.9568L0 2.9544V23.7264C0 23.8752 0.12 23.9952 0.2688 23.9952H4.2096L7.164 21.0408V14.736C7.164 14.5872 7.284 14.4672 7.4328 14.4672H7.764C7.836 14.4672 7.9032 14.496 7.9536 14.5464L17.4072 24H22.068C22.2168 24 22.3368 23.88 22.3368 23.7312V19.0704L13.2696 10.0032C13.1016 9.8352 13.2216 9.5448 13.4592 9.5448Z" fill="#FFD121"/>
</svg>
