<svg width="117" height="208" viewBox="0 0 117 208" fill="none" xmlns="http://www.w3.org/2000/svg">
<path d="M21.3203 116.48L48.4503 116.07L47.8903 94.1801H21.3203V116.48Z" fill="#121212"/>
<path d="M0.41 67.05L0 94.18H21.32V67.59L0.41 67.05Z" fill="#121212"/>
<path d="M93.3903 69.43L93.9003 49.43L94.5803 22.85L95.1603 0.42L68.0303 0V23.52V49.43V68.78L47.2303 68.25L45.4803 0L21.3203 1.09V94.18H47.8903H68.0303V115.39L92.1903 116.48L92.7603 94.18H115.39L116.48 70.02L93.3903 69.43Z" fill="#F26C25"/>
<path d="M116.06 22.3L53.8896 23.89L54.5496 49.43H116.48L116.06 22.3Z" fill="#121212"/>
<path d="M0 25.26L1.09 49.43H21.32V24.72L0 25.26Z" fill="#121212"/>
<path d="M41.0203 132.69L40.9703 156.22L43.3503 157.92L46.4603 156.72L46.5103 132.65L55.7903 133.94L55.1303 161.26L43.6903 167.3L31.5503 161.38L31.9103 134.11L41.0103 132.7L41.0203 132.69ZM89.9603 165.91L90.0503 133.55L101.19 133.53L114.4 138.2L113.31 161.25L101.87 166.15L89.9603 165.9V165.91ZM98.5103 141.79L99.1503 158.26L104.64 156.72L104.71 143.58L98.5203 141.79H98.5103ZM78.9703 133.39L67.7203 133.12L57.9903 165.86L66.9503 165.95L68.2403 161.21L75.8303 161.28L76.7703 166.04L86.2103 166.11L78.9703 133.39ZM69.5003 153.59L69.6203 153.13L72.7203 141.72L75.1103 153.46L69.5003 153.58V153.59ZM24.0903 161.96L27.0303 160.67L25.9303 137.38L14.3103 131.25L2.21031 137.27L2.07031 160.33L13.6203 166.58L16.1403 165.47L20.5203 169.17L28.5303 166.22L24.0903 161.97V161.96ZM13.9203 156.82L11.5903 155.71L11.7303 142.1L13.9703 140.96L16.8903 142.09L17.5203 154.99L13.9203 156.82ZM12.9103 194.39L13.3003 205.63L3.66031 205.77L3.52031 173.87L12.2103 173.51L12.6203 186L18.6303 185.46L18.6803 173.4L28.3203 173.54L27.2303 205.67L18.5403 205.31L18.5903 194.5L12.9103 194.41V194.39ZM98.3103 194.39L98.7003 205.63L89.0603 205.77L88.9203 173.87L97.6103 173.51L98.0203 186L104.03 185.46L104.08 173.4L113.72 173.54L112.63 205.67L103.94 205.31L103.99 194.5L98.3103 194.41V194.39ZM84.9903 176.52L83.7603 184.23L73.9503 181.1L84.9903 197.93L79.9803 207.98L63.4803 205.76L62.5203 196.78L74.2303 198.71L63.3203 181.66L70.1703 171.85L84.9903 176.51V176.52ZM52.1703 173.25L40.9203 172.98L31.1903 205.72L40.1503 205.81L41.4403 201.07L49.0303 201.14L49.9703 205.9L59.4103 205.97L52.1703 173.25ZM42.7003 193.45L42.8203 192.99L45.9203 181.58L48.3103 193.32L42.7003 193.44V193.45Z" fill="#121212"/>
</svg>
