<?xml version="1.0" standalone="no"?>
<!DOCTYPE svg PUBLIC "-//W3C//DTD SVG 20010904//EN"
 "http://www.w3.org/TR/2001/REC-SVG-20010904/DTD/svg10.dtd">
<svg version="1.0" xmlns="http://www.w3.org/2000/svg"
 width="500" height="500" viewBox="0 0 1280.000000 853.000000"
 preserveAspectRatio="xMidYMid meet">
<metadata>
Created by potrace 1.15, written by Peter Selinger 2001-2017
</metadata>
<g transform="translate(0.000000,853.000000) scale(0.100000,-0.100000)"
fill="#000000" stroke="none">
<path d="M5745 7465 c-419 -54 -731 -209 -922 -460 -46 -60 -118 -209 -147
-306 -61 -201 -61 -471 0 -596 64 -133 233 -216 464 -230 185 -10 357 25 468
96 123 80 159 159 147 325 -13 194 21 332 101 409 63 61 103 71 257 64 223
-10 300 -41 441 -180 110 -107 149 -177 166 -297 49 -338 -159 -700 -636
-1105 -185 -157 -239 -210 -343 -335 -115 -139 -129 -159 -192 -270 -130 -227
-192 -400 -224 -629 -46 -325 31 -483 280 -568 273 -94 624 -38 764 122 58 67
64 88 72 255 12 269 55 403 199 618 81 122 193 238 370 386 245 204 440 405
596 616 46 62 144 216 144 227 0 3 6 14 13 22 21 25 97 196 127 286 67 198 78
417 31 590 -27 98 -107 258 -172 346 -154 209 -447 400 -764 498 -215 66 -308
86 -560 116 -148 18 -538 18 -680 0z"/>
<path d="M3330 6324 c-14 -2 -59 -9 -100 -15 -310 -46 -550 -204 -652 -429
-16 -36 -41 -107 -55 -159 -22 -83 -24 -110 -21 -225 4 -148 19 -195 79 -254
84 -83 246 -125 401 -103 115 16 184 46 243 105 63 63 79 115 70 221 -12 134
21 249 86 293 31 22 42 24 134 20 128 -6 189 -31 272 -115 84 -87 106 -136
111 -253 6 -147 -28 -256 -131 -413 -70 -108 -171 -221 -296 -332 -266 -236
-427 -498 -492 -797 -45 -206 -27 -358 52 -436 139 -140 454 -158 621 -35 73
53 100 117 104 246 4 138 26 234 74 332 59 120 119 198 239 310 337 318 467
479 586 728 132 276 142 525 29 750 -73 146 -150 230 -305 333 -217 145 -507
223 -849 229 -96 2 -186 2 -200 -1z"/>
<path d="M8779 6315 c-245 -34 -412 -109 -555 -251 -67 -65 -89 -96 -123 -168
-23 -48 -51 -122 -62 -164 -41 -162 -34 -353 17 -439 58 -99 187 -156 354
-157 151 -1 257 33 333 108 56 55 69 101 68 245 -2 148 14 205 69 255 38 35
43 36 115 36 85 0 165 -15 215 -40 52 -27 147 -132 177 -196 22 -49 25 -69 25
-158 0 -124 -31 -228 -103 -348 -71 -117 -143 -201 -321 -370 -163 -156 -220
-220 -303 -343 -194 -289 -275 -712 -165 -864 122 -168 481 -199 656 -56 71
59 86 98 95 255 9 151 30 235 85 340 57 109 124 187 317 372 251 241 381 404
481 605 151 301 163 550 41 793 -81 161 -203 281 -388 380 -265 142 -691 211
-1028 165z"/>
<path d="M1185 5649 c-238 -30 -433 -127 -529 -262 -87 -122 -121 -243 -114
-404 3 -85 7 -105 30 -145 31 -51 98 -100 168 -119 66 -18 215 -16 280 3 71
22 129 60 160 105 22 32 25 49 30 167 4 116 8 135 28 163 13 18 35 36 48 39
48 12 177 -2 219 -23 60 -31 141 -122 155 -174 17 -62 7 -173 -23 -246 -50
-123 -117 -202 -393 -463 -219 -206 -344 -481 -332 -729 3 -76 8 -95 32 -131
114 -172 509 -170 607 3 17 31 24 65 30 151 8 114 28 189 70 261 44 77 121
165 212 244 272 234 436 458 501 685 91 313 -56 599 -389 756 -210 100 -543
150 -790 119z"/>
<path d="M11190 5653 c-91 -10 -212 -37 -281 -64 -204 -79 -323 -209 -380
-414 -29 -107 -25 -257 10 -328 44 -91 151 -140 306 -141 155 -1 272 50 314
137 17 35 21 62 21 148 0 113 19 177 58 198 30 16 150 13 208 -4 63 -18 155
-106 180 -171 23 -61 15 -179 -17 -259 -50 -123 -127 -214 -392 -463 -212
-200 -343 -477 -335 -712 4 -113 23 -158 87 -207 112 -86 353 -94 477 -16 77
48 95 88 105 222 8 117 19 162 59 242 36 72 127 184 198 244 291 247 475 495
533 723 24 94 25 237 3 313 -85 290 -358 475 -795 539 -121 18 -265 23 -359
13z"/>
<path d="M1120 3084 c-149 -40 -240 -150 -240 -290 0 -101 44 -180 133 -239
157 -103 370 -79 490 55 54 59 72 110 71 195 -1 75 -20 121 -75 180 -92 99
-237 137 -379 99z"/>
<path d="M11090 3084 c-108 -29 -198 -109 -226 -201 -59 -196 75 -368 302
-390 148 -14 303 67 358 186 29 65 29 170 -2 232 -72 147 -255 220 -432 173z"/>
<path d="M3280 3008 c-121 -15 -219 -69 -289 -158 -46 -58 -60 -98 -68 -191
-17 -201 137 -363 376 -395 54 -7 184 17 236 44 111 56 181 143 210 260 15 63
15 74 1 136 -19 81 -36 115 -83 167 -94 104 -239 156 -383 137z"/>
<path d="M8775 3005 c-127 -22 -216 -76 -278 -167 -98 -145 -81 -327 43 -449
67 -65 124 -94 231 -117 74 -15 85 -15 160 0 99 21 155 47 217 103 59 53 96
120 113 203 39 189 -101 381 -307 421 -92 18 -109 18 -179 6z"/>
<path d="M5711 2855 c-103 -23 -156 -44 -218 -84 -155 -101 -233 -236 -233
-403 0 -336 380 -566 775 -467 121 30 224 94 300 186 67 82 96 153 103 255 9
143 -31 244 -142 354 -111 111 -235 160 -421 169 -67 3 -121 0 -164 -10z"/>
</g>
</svg>
