<svg width="70" height="25" viewBox="0 0 70 25" fill="none" xmlns="http://www.w3.org/2000/svg">
<path d="M15.5 2.82812L14.6562 8.14062L8.10938 6.60938L15.5 17.5781L12.0469 24.5L1.04688 23L0.828125 16.8906L7.78125 18.0625L0.578125 6.375L5.15625 0.109375L15.5 2.82812ZM23.2031 19.7344L22.3125 23L16.1406 22.9375L22.8438 0.390625L30.5938 0.578125L35.5781 23.1094L29.0781 23.0625L28.4844 20.0625L23.2031 19.7344ZM27.2344 13.8125L26.2031 8.65625L24.8281 13.7188L27.2344 13.8125ZM43.1875 16.9688L49.875 17.1094L50.0625 23.2812L35.8125 22.8125L35.875 16.8281L42.6562 6.9375H35.9375L35.9844 0.671875L49.8594 0.65625L49.9375 6.9375L43.1875 16.9688ZM57.5156 19.7344L56.625 23L50.4531 22.9375L57.1562 0.390625L64.9062 0.578125L69.8906 23.1094L63.3906 23.0625L62.7969 20.0625L57.5156 19.7344ZM61.5469 13.8125L60.5156 8.65625L59.1406 13.7188L61.5469 13.8125Z" fill="#F36D26"/>
</svg>
