<svg width="38" height="39" viewBox="0 0 38 39" fill="none" xmlns="http://www.w3.org/2000/svg">
<path fill-rule="evenodd" clip-rule="evenodd" d="M27.3764 17.7299C27.6614 18.0144 28.0731 18.1883 28.5006 18.1883L28.4689 18.1409C28.8806 18.1409 29.2922 17.967 29.5931 17.6824L34.1366 13.1465C34.4832 12.9048 34.7296 12.5286 34.7981 12.0954C34.8843 11.6035 34.7379 11.0801 34.3589 10.7115L29.6089 5.96933C28.9756 5.33705 27.9781 5.33705 27.3606 5.96933C26.7272 6.58581 26.7272 7.58166 27.3606 8.21395V8.22976L29.412 10.2689H27.7715C24.6682 10.2689 21.7707 11.7706 19.9973 14.3156L19.7282 14.7265C19.554 14.9795 19.459 15.2956 19.4748 15.6117C19.4748 16.4811 20.1873 17.1925 21.074 17.1925L21.0582 17.1766C21.5807 17.1766 22.0715 16.9237 22.3882 16.4969L22.6257 16.1176C23.7973 14.4262 25.729 13.4303 27.8032 13.4303H29.412L27.3606 15.4694V15.4853C26.7431 16.1017 26.7431 17.1134 27.3764 17.7299ZM3.1665 27.6726C3.1665 28.542 3.86317 29.2533 4.74984 29.2533H8.54984C11.6532 29.2375 14.5665 27.7042 16.3398 25.1593L16.609 24.7483C17.084 24.0053 16.8782 23.0253 16.1498 22.5511C15.4057 22.0611 14.424 22.2666 13.949 23.0095L13.7115 23.3889C12.524 25.0644 10.5923 26.0761 8.534 26.0919H4.74984C3.86317 26.0919 3.1665 26.7874 3.1665 27.6726ZM29.3961 29.253H27.8348C24.7315 29.253 21.834 27.7355 20.0607 25.2221L13.7273 16.1488C12.5398 14.4416 10.5923 13.43 8.534 13.4458H4.74984C3.86317 13.4458 3.1665 12.7345 3.1665 11.8651C3.1665 10.9799 3.86317 10.2844 4.74984 10.2844H8.534C11.6215 10.2844 14.519 11.786 16.3082 14.331L22.6415 23.3885V23.3869C23.8132 25.0783 25.7607 26.0899 27.8348 26.0899H29.4263L27.3606 24.0366V24.035C26.7272 23.4027 26.7272 22.4069 27.3606 21.7904C27.9781 21.1581 28.9756 21.1581 29.6089 21.7904L34.3589 26.5325C34.5004 26.6702 34.6095 26.8295 34.6862 27.0006C34.7805 27.2032 34.8332 27.4299 34.8332 27.6707C34.8332 28.2265 34.5419 28.7177 34.1043 28.9997L29.5931 33.5035C29.2922 33.788 28.8806 33.9619 28.4689 33.9619L28.5006 33.9951C28.0731 33.9951 27.6614 33.8212 27.3764 33.5367C26.7431 32.9202 26.7431 31.9086 27.3606 31.2921V31.2763L29.3961 29.253Z" fill="white"/>
</svg>
