<svg width="91" height="20" viewBox="0 0 91 20" fill="none" xmlns="http://www.w3.org/2000/svg">
<path d="M0.0839844 1.28857L12.5596 0.189941L12.4131 5.74414H8.60449L9.19043 18.1465L4.00244 18.2197L3.9292 5.93945L0.376953 5.52441L0.0839844 1.28857ZM32.5972 0.568359L28.9229 17.8779L24.8335 18.3174L23.0024 11.2129L20.9639 18.2197L16.6548 18L13.3467 0.556152L18.144 0.48291L19.3647 7.4165L21.1104 2.31396L24.6138 1.5083L26.1519 7.27002L28.0928 0.666016L32.5972 0.568359ZM37.2783 0.495117L37.7422 18.1465L32.6763 18.2197L32.603 0.69043L37.2783 0.495117ZM39.042 1.28857L51.5176 0.189941L51.3711 5.74414H47.5625L48.1484 18.1465L42.9604 18.2197L42.8872 5.93945L39.335 5.52441L39.042 1.28857ZM52.7686 1.28857L65.2441 0.189941L65.0977 5.74414H61.2891L61.875 18.1465L56.687 18.2197L56.6138 5.93945L53.0615 5.52441L52.7686 1.28857ZM71.5732 7.42871L75.6504 7.64844V12.0063L71.3779 11.7012L71.3169 12.9097H77.5669L77.7134 18.2197L66.5806 17.8535L66.7148 0.556152L77.5547 0.543945L77.6157 5.81738L71.6465 5.86621L71.5732 7.42871ZM83.4199 4.87744V7.35547L84.4209 7.34326L86.2031 5.89062L85.1777 4.6333L83.4199 4.87744ZM79.0986 17.8779L79.2695 1.02002L85.6416 0.00683594L90.6831 2.33838L90.3901 8.979L87.5947 11.0908L90.8662 16.2544L87.1553 19.0254L83.5054 12.6777L83.5542 18.3906L79.0986 17.8779Z" fill="black"/>
</svg>
